{
  "accessors": [
    {
      "bufferView": 2,
      "componentType": 5126,
      "count": 41734,
      "max": [
        4.909817695617676,
        5.716805934906006,
        16.687448501586914
      ],
      "min": [
        -5.465788841247559,
        -6.26888370513916,
        0.0
      ],
      "type": "VEC3"
    },
    {
      "bufferView": 2,
      "byteOffset": 500808,
      "componentType": 5126,
      "count": 41734,
      "max": [
        0.9999940395355225,
        1.0,
        0.9922792911529541
      ],
      "min": [
        -0.9999935626983643,
        -1.0,
        -0.9913840889930725
      ],
      "type": "VEC3"
    },
    {
      "bufferView": 3,
      "componentType": 5126,
      "count": 41734,
      "max": [
        0.9999133944511414,
        0.9998984336853027,
        0.9999827742576599,
        -1.0
      ],
      "min": [
        -0.9997945427894592,
        -0.9999701976776123,
        -0.9999889731407166,
        -1.0
      ],
      "type": "VEC4"
    },
    {
      "bufferView": 1,
      "componentType": 5126,
      "count": 41734,
      "max": [
        2.5367205142974854,
        1.6724746227264404
      ],
      "min": [
        -1.5367205142974854,
        -0.6724746227264404
      ],
      "type": "VEC2"
    },
    {
      "bufferView": 1,
      "byteOffset": 333872,
      "componentType": 5126,
      "count": 41734,
      "max": [
        2.5367205142974854,
        1.6724746227264404
      ],
      "min": [
        -1.5367205142974854,
        -0.6724746227264404
      ],
      "type": "VEC2"
    },
    {
      "bufferView": 0,
      "componentType": 5125,
      "count": 156672,
      "type": "SCALAR"
    },
    {
      "bufferView": 2,
      "byteOffset": 1001616,
      "componentType": 5126,
      "count": 65533,
      "max": [
        4.967708587646484,
        5.578257083892822,
        16.903005599975586
      ],
      "min": [
        -5.148187637329102,
        -6.510281562805176,
        3.685115337371826
      ],
      "type": "VEC3"
    },
    {
      "bufferView": 2,
      "byteOffset": 1788012,
      "componentType": 5126,
      "count": 65533,
      "max": [
        0.9997246265411377,
        0.999792218208313,
        0.9998759031295776
      ],
      "min": [
        -0.9996728301048279,
        -0.9997482299804688,
        -0.9786233901977539
      ],
      "type": "VEC3"
    },
    {
      "bufferView": 1,
      "byteOffset": 667744,
      "componentType": 5126,
      "count": 65533,
      "max": [
        1.0,
        1.0
      ],
      "min": [
        0.0,
        0.0
      ],
      "type": "VEC2"
    },
    {
      "bufferView": 0,
      "byteOffset": 626688,
      "componentType": 5125,
      "count": 98307,
      "type": "SCALAR"
    },
    {
      "bufferView": 2,
      "byteOffset": 2574408,
      "componentType": 5126,
      "count": 43677,
      "max": [
        5.053772449493408,
        5.917545318603516,
        13.199894905090332
      ],
      "min": [
        -5.6706976890563965,
        -5.646907806396484,
        3.775554656982422
      ],
      "type": "VEC3"
    },
    {
      "bufferView": 2,
      "byteOffset": 3098532,
      "componentType": 5126,
      "count": 43677,
      "max": [
        0.9997351169586182,
        0.9998339414596558,
        0.9993472695350647
      ],
      "min": [
        -0.9996985793113708,
        -0.9996389150619507,
        -0.9794439673423767
      ],
      "type": "VEC3"
    },
    {
      "bufferView": 1,
      "byteOffset": 1192008,
      "componentType": 5126,
      "count": 43677,
      "max": [
        1.0,
        1.0
      ],
      "min": [
        0.0,
        0.0
      ],
      "type": "VEC2"
    },
    {
      "bufferView": 0,
      "byteOffset": 1019916,
      "componentType": 5125,
      "count": 65517,
      "type": "SCALAR"
    }
  ],
  "asset": {
    "extras": {
      "author": "BeratKazim (https://sketchfab.com/BeratKazim)",
      "license": "CC-BY-4.0 (http://creativecommons.org/licenses/by/4.0/)",
      "source": "https://sketchfab.com/3d-models/oak-tree-caf081828df84d7cbb07b4107991facc",
      "title": "Oak Tree"
    },
    "generator": "Sketchfab-12.68.0",
    "version": "2.0"
  },
  "bufferViews": [
    {
      "buffer": 0,
      "byteLength": 1281984,
      "name": "floatBufferViews",
      "target": 34963
    },
    {
      "buffer": 0,
      "byteLength": 1541424,
      "byteOffset": 1281984,
      "byteStride": 8,
      "name": "floatBufferViews",
      "target": 34962
    },
    {
      "buffer": 0,
      "byteLength": 3622656,
      "byteOffset": 2823408,
      "byteStride": 12,
      "name": "floatBufferViews",
      "target": 34962
    },
    {
      "buffer": 0,
      "byteLength": 667744,
      "byteOffset": 6446064,
      "byteStride": 16,
      "name": "floatBufferViews",
      "target": 34962
    }
  ],
  "buffers": [
    {
      "byteLength": 7113808,
      "uri": "scene.bin"
    }
  ],
  "images": [
    {
      "uri": "textures/Oak_Bark_baseColor.jpeg"
    },
    {
      "uri": "textures/Oak_Bark_metallicRoughness.png"
    },
    {
      "uri": "textures/Oak_Bark_normal.png"
    },
    {
      "uri": "textures/Leaf_baseColor.png"
    }
  ],
  "materials": [
    {
      "doubleSided": true,
      "emissiveFactor": [
        0.0173407,
        0.003623279999999998,
        0.0028943899999999997
      ],
      "name": "Oak_Bark",
      "normalTexture": {
        "index": 2,
        "scale": 0.37518187827780786
      },
      "pbrMetallicRoughness": {
        "baseColorTexture": {
          "index": 0
        },
        "metallicFactor": 0.0,
        "metallicRoughnessTexture": {
          "index": 1
        }
      }
    },
    {
      "alphaCutoff": 0.3135250356014076,
      "alphaMode": "MASK",
      "doubleSided": true,
      "emissiveFactor": [
        0.006005170000000004,
        0.0220686,
        0.0
      ],
      "name": "Leaf",
      "pbrMetallicRoughness": {
        "baseColorTexture": {
          "index": 3
        },
        "metallicFactor": 0.0,
        "roughnessFactor": 0.0
      }
    }
  ],
  "meshes": [
    {
      "name": "tree_Oak Bark_0",
      "primitives": [
        {
          "attributes": {
            "NORMAL": 1,
            "POSITION": 0,
            "TANGENT": 2,
            "TEXCOORD_0": 3,
            "TEXCOORD_1": 4
          },
          "indices": 5,
          "material": 0,
          "mode": 4
        }
      ]
    },
    {
      "name": "leaves_Leaf_0",
      "primitives": [
        {
          "attributes": {
            "NORMAL": 7,
            "POSITION": 6,
            "TEXCOORD_0": 8
          },
          "indices": 9,
          "material": 1,
          "mode": 4
        }
      ]
    },
    {
      "name": "leaves_Leaf_0",
      "primitives": [
        {
          "attributes": {
            "NORMAL": 11,
            "POSITION": 10,
            "TEXCOORD_0": 12
          },
          "indices": 13,
          "material": 1,
          "mode": 4
        }
      ]
    }
  ],
  "nodes": [
    {
      "children": [
        1
      ],
      "matrix": [
        1.0,
        0.0,
        0.0,
        0.0,
        0.0,
        2.220446049250313e-16,
        -1.0,
        0.0,
        0.0,
        1.0,
        2.220446049250313e-16,
        0.0,
        0.0,
        0.0,
        0.0,
        1.0
      ],
      "name": "Sketchfab_model"
    },
    {
      "children": [
        2
      ],
      "matrix": [
        0.009999999776482582,
        0.0,
        0.0,
        0.0,
        0.0,
        0.0,
        0.009999999776482582,
        0.0,
        0.0,
        -0.009999999776482582,
        0.0,
        0.0,
        0.0,
        0.0,
        0.0,
        1.0
      ],
      "name": "5608831ae32f4ca49e464e64b1725226.fbx"
    },
    {
      "children": [
        3,
        6,
        8
      ],
      "name": "RootNode"
    },
    {
      "children": [
        4
      ],
      "matrix": [
        -29.08647719990347,
        -5.518906457566863,
        -95.51711910171437,
        0.0,
        56.63930913109449,
        79.46723428563203,
        -21.83912397841966,
        0.0,
        77.11008775993375,
        -60.45246356562044,
        -19.98834696773717,
        0.0,
        407.6245422363281,
        590.38623046875,
        -100.54539489746094,
        1.0
      ],
      "name": "Light"
    },
    {
      "children": [
        5
      ],
      "matrix": [
        1.0,
        0.0,
        0.0,
        0.0,
        0.0,
        2.220446049250313e-16,
        1.0,
        0.0,
        0.0,
        -1.0,
        2.220446049250313e-16,
        0.0,
        0.0,
        0.0,
        0.0,
        1.0
      ],
      "name": "Object_4"
    },
    {
      "name": "Object_5"
    },
    {
      "children": [
        7
      ],
      "matrix": [
        -65.15581009765468,
        -44.527143038140764,
        -61.41704928909654,
        0.0,
        -32.40135466989878,
        89.5395708958271,
        -30.542085476036902,
        0.0,
        68.59207001076176,
        1.2755314797120858e-05,
        -72.76761921184276,
        0.0,
        735.88916015625,
        495.8309326171875,
        692.5791015625,
        1.0
      ],
      "name": "Camera"
    },
    {
      "name": "Object_7"
    },
    {
      "children": [
        9,
        10
      ],
      "matrix": [
        100.0,
        0.0,
        0.0,
        0.0,
        0.0,
        -1.629206793918314e-05,
        -99.99999999999868,
        0.0,
        0.0,
        99.99999999999868,
        -1.629206793918314e-05,
        0.0,
        0.0,
        0.0,
        0.0,
        1.0
      ],
      "name": "tree"
    },
    {
      "mesh": 0,
      "name": "tree_Oak Bark_0"
    },
    {
      "children": [
        11,
        12
      ],
      "matrix": [
        1.0,
        0.0,
        0.0,
        0.0,
        0.0,
        1.0,
        -2.646977960169688e-23,
        0.0,
        0.0,
        2.646977960169688e-23,
        1.0,
        0.0,
        0.0,
        0.0,
        0.0,
        1.0
      ],
      "name": "leaves"
    },
    {
      "mesh": 1,
      "name": "leaves_Leaf_0"
    },
    {
      "mesh": 2,
      "name": "leaves_Leaf_0"
    }
  ],
  "samplers": [
    {
      "magFilter": 9729,
      "minFilter": 9987,
      "wrapS": 10497,
      "wrapT": 10497
    }
  ],
  "scene": 0,
  "scenes": [
    {
      "name": "Sketchfab_Scene",
      "nodes": [
        0
      ]
    }
  ],
  "textures": [
    {
      "sampler": 0,
      "source": 0
    },
    {
      "sampler": 0,
      "source": 1
    },
    {
      "sampler": 0,
      "source": 2
    },
    {
      "sampler": 0,
      "source": 3
    }
  ]
}
