{
  "accessors": [
    {
      "bufferView": 2,
      "componentType": 5126,
      "count": 4517,
      "max": [
        2.8355774879455566,
        3.2387001514434814,
        2.0212340354919434
      ],
      "min": [
        -2.4617667198181152,
        -0.15736427903175354,
        -2.3890726566314697
      ],
      "type": "VEC3"
    },
    {
      "bufferView": 2,
      "byteOffset": 54204,
      "componentType": 5126,
      "count": 4517,
      "max": [
        0.9988288283348083,
        0.9998188018798828,
        0.9994351863861084
      ],
      "min": [
        -0.9999937415122986,
        -0.9999964833259583,
        -0.9991824626922607
      ],
      "type": "VEC3"
    },
    {
      "bufferView": 3,
      "componentType": 5126,
      "count": 4517,
      "max": [
        0.9920236468315125,
        0.999932050704956,
        0.9996967911720276,
        1.0
      ],
      "min": [
        -0.9999988079071045,
        -0.99996417760849,
        -0.994765043258667,
        1.0
      ],
      "type": "VEC4"
    },
    {
      "bufferView": 1,
      "componentType": 5126,
      "count": 4517,
      "max": [
        0.9898219108581543,
        0.8318979740142822
      ],
      "min": [
        0.01017811894416809,
        0.00869402289390564
      ],
      "type": "VEC2"
    },
    {
      "bufferView": 0,
      "componentType": 5125,
      "count": 23526,
      "type": "SCALAR"
    },
    {
      "bufferView": 2,
      "byteOffset": 108408,
      "componentType": 5126,
      "count": 4423,
      "max": [
        -4.544798851013184,
        3.1118342876434326,
        2.0109777450561523
      ],
      "min": [
        -11.438706398010254,
        -0.11961434036493301,
        -2.0128612518310547
      ],
      "type": "VEC3"
    },
    {
      "bufferView": 2,
      "byteOffset": 161484,
      "componentType": 5126,
      "count": 4423,
      "max": [
        0.9983497262001038,
        0.9999078512191772,
        0.9996257424354553
      ],
      "min": [
        -0.9995872378349304,
        -0.99993896484375,
        -0.9994913339614868
      ],
      "type": "VEC3"
    },
    {
      "bufferView": 3,
      "byteOffset": 72272,
      "componentType": 5126,
      "count": 4423,
      "max": [
        0.9999450445175171,
        0.9999741315841675,
        0.9987066984176636,
        1.0
      ],
      "min": [
        -0.9544349908828735,
        -0.9998152852058411,
        -0.994972825050354,
        1.0
      ],
      "type": "VEC4"
    },
    {
      "bufferView": 1,
      "byteOffset": 36136,
      "componentType": 5126,
      "count": 4423,
      "max": [
        0.850832462310791,
        0.845494270324707
      ],
      "min": [
        0.01017811894416809,
        0.00869402289390564
      ],
      "type": "VEC2"
    },
    {
      "bufferView": 0,
      "byteOffset": 94104,
      "componentType": 5125,
      "count": 23160,
      "type": "SCALAR"
    }
  ],
  "asset": {
    "extras": {
      "author": "Zambur (https://sketchfab.com/Zambur)",
      "license": "CC-BY-4.0 (http://creativecommons.org/licenses/by/4.0/)",
      "source": "https://sketchfab.com/3d-models/rocks-4b3a70be85834c68bb738d8891c118cc",
      "title": "Rocks"
    },
    "generator": "Sketchfab-12.65.0",
    "version": "2.0"
  },
  "bufferViews": [
    {
      "buffer": 0,
      "byteLength": 186744,
      "name": "floatBufferViews",
      "target": 34963
    },
    {
      "buffer": 0,
      "byteLength": 71520,
      "byteOffset": 186744,
      "byteStride": 8,
      "name": "floatBufferViews",
      "target": 34962
    },
    {
      "buffer": 0,
      "byteLength": 214560,
      "byteOffset": 258264,
      "byteStride": 12,
      "name": "floatBufferViews",
      "target": 34962
    },
    {
      "buffer": 0,
      "byteLength": 143040,
      "byteOffset": 472824,
      "byteStride": 16,
      "name": "floatBufferViews",
      "target": 34962
    }
  ],
  "buffers": [
    {
      "byteLength": 615864,
      "uri": "scene.bin"
    }
  ],
  "images": [
    {
      "uri": "textures/lambert2_baseColor.png"
    },
    {
      "uri": "textures/lambert2_metallicRoughness.png"
    },
    {
      "uri": "textures/lambert2_normal.png"
    }
  ],
  "materials": [
    {
      "doubleSided": true,
      "name": "lambert2",
      "normalTexture": {
        "index": 2
      },
      "pbrMetallicRoughness": {
        "baseColorTexture": {
          "index": 0
        },
        "metallicRoughnessTexture": {
          "index": 1
        }
      }
    }
  ],
  "meshes": [
    {
      "name": "pCube1_lambert2_0",
      "primitives": [
        {
          "attributes": {
            "NORMAL": 1,
            "POSITION": 0,
            "TANGENT": 2,
            "TEXCOORD_0": 3
          },
          "indices": 4,
          "material": 0,
          "mode": 4
        }
      ]
    },
    {
      "name": "pCube2_lambert2_0",
      "primitives": [
        {
          "attributes": {
            "NORMAL": 6,
            "POSITION": 5,
            "TANGENT": 7,
            "TEXCOORD_0": 8
          },
          "indices": 9,
          "material": 0,
          "mode": 4
        }
      ]
    }
  ],
  "nodes": [
    {
      "children": [
        1
      ],
      "matrix": [
        1.0,
        0.0,
        0.0,
        0.0,
        0.0,
        2.220446049250313e-16,
        -1.0,
        0.0,
        0.0,
        1.0,
        2.220446049250313e-16,
        0.0,
        0.0,
        0.0,
        0.0,
        1.0
      ],
      "name": "Sketchfab_model"
    },
    {
      "children": [
        2
      ],
      "matrix": [
        0.009999999776482582,
        0.0,
        0.0,
        0.0,
        0.0,
        0.0,
        0.009999999776482582,
        0.0,
        0.0,
        -0.009999999776482582,
        0.0,
        0.0,
        0.0,
        0.0,
        0.0,
        1.0
      ],
      "name": "b75be966ed9d4025bbacb3589239d84f.fbx"
    },
    {
      "children": [
        3
      ],
      "name": "RootNode"
    },
    {
      "children": [
        4,
        6
      ],
      "name": "group1"
    },
    {
      "children": [
        5
      ],
      "name": "pCube1"
    },
    {
      "mesh": 0,
      "name": "pCube1_lambert2_0"
    },
    {
      "children": [
        7
      ],
      "name": "pCube2"
    },
    {
      "mesh": 1,
      "name": "pCube2_lambert2_0"
    }
  ],
  "samplers": [
    {
      "magFilter": 9729,
      "minFilter": 9987,
      "wrapS": 10497,
      "wrapT": 10497
    }
  ],
  "scene": 0,
  "scenes": [
    {
      "name": "Sketchfab_Scene",
      "nodes": [
        0
      ]
    }
  ],
  "textures": [
    {
      "sampler": 0,
      "source": 0
    },
    {
      "sampler": 0,
      "source": 1
    },
    {
      "sampler": 0,
      "source": 2
    }
  ]
}
